<?xml version="1.0" encoding="UTF-8"?>
<!DOCTYPE svg PUBLIC "-//W3C//DTD SVG 1.1//EN" "http://www.w3.org/Graphics/SVG/1.1/DTD/svg11.dtd">
<!-- Creator: CorelDRAW 2020 (64-Bit) -->
<svg xmlns="http://www.w3.org/2000/svg" xml:space="preserve" width="6.1623mm" height="6.162mm" version="1.1" style="shape-rendering:geometricPrecision; text-rendering:geometricPrecision; image-rendering:optimizeQuality; fill-rule:evenodd; clip-rule:evenodd"
viewBox="0 0 10.51 10.51"
 xmlns:xlink="http://www.w3.org/1999/xlink"
 xmlns:xodm="http://www.corel.com/coreldraw/odm/2003">
 <defs>
  <style type="text/css">
   <![CDATA[
    .fil0 {fill:#B6B8BA;fill-rule:nonzero}
   ]]>
  </style>
 </defs>
 <g id="Layer_x0020_1">
  <metadata id="CorelCorpID_0Corel-Layer"/>
  <path class="fil0" d="M8.29 3.45c0,-0.65 -0.52,-1.17 -1.17,-1.17l-3.19 0 0 1.47 -0.24 0 0 -1.47 -0.14 0c-0.01,0 -0.02,0 -0.03,0l0 1.47 -0.24 0 0 -1.44c-0.06,0.01 -0.11,0.03 -0.17,0.05l0 1.39 -0.24 0 0 -1.26c-0.3,0.21 -0.49,0.56 -0.49,0.95l0 0.77 1.87 0c0.27,-0.28 0.66,-0.45 1.08,-0.45 0.42,0 0.8,0.17 1.08,0.45l1.88 0 0 -0.77zm-2.96 2.99c0.64,0 1.16,-0.52 1.16,-1.16 0,-0.35 -0.15,-0.66 -0.4,-0.88 -0.09,-0.08 -0.18,-0.14 -0.29,-0.18 -0.15,-0.07 -0.31,-0.1 -0.48,-0.1 -0.17,0 -0.33,0.04 -0.48,0.1 -0.11,0.05 -0.2,0.11 -0.29,0.18 -0.24,0.21 -0.4,0.53 -0.4,0.88 0,0.64 0.52,1.16 1.17,1.16zm2.96 -2.04l-1.73 0c0.18,0.25 0.28,0.55 0.28,0.88 0,0.84 -0.68,1.51 -1.51,1.51 -0.84,0 -1.51,-0.68 -1.51,-1.51 0,-0.33 0.1,-0.63 0.28,-0.88l-1.72 0 0 2.65c0,0.65 0.52,1.17 1.17,1.17l3.57 0c0.65,0 1.17,-0.52 1.17,-1.17l0 -2.65zm2.22 0.85c0,2.9 -2.35,5.25 -5.25,5.25 -2.9,0 -5.25,-2.35 -5.25,-5.25 0,-2.9 2.35,-5.25 5.25,-5.25 2.9,0 5.25,2.35 5.25,5.25zm-5.18 0.89c0.48,0 0.86,-0.39 0.86,-0.86 0,-0.48 -0.39,-0.86 -0.86,-0.86 -0.48,0 -0.86,0.38 -0.86,0.86 0,0.48 0.39,0.86 0.86,0.86zm2.42 -3.18l0 0.65c0,0.1 -0.08,0.19 -0.19,0.19l-0.63 0c-0.1,0 -0.19,-0.08 -0.19,-0.19l0 -0.65c0,-0.1 0.08,-0.19 0.19,-0.19l0.63 0c0.1,0 0.19,0.08 0.19,0.19z"/>
 </g>
</svg>
