<?xml version="1.0" encoding="UTF-8"?>
<!DOCTYPE svg PUBLIC "-//W3C//DTD SVG 1.1//EN" "http://www.w3.org/Graphics/SVG/1.1/DTD/svg11.dtd">
<!-- Creator: CorelDRAW 2020 (64-Bit) -->
<svg xmlns="http://www.w3.org/2000/svg" xml:space="preserve" width="6.1619mm" height="6.1623mm" version="1.1" style="shape-rendering:geometricPrecision; text-rendering:geometricPrecision; image-rendering:optimizeQuality; fill-rule:evenodd; clip-rule:evenodd"
viewBox="0 0 11.02 11.02"
 xmlns:xlink="http://www.w3.org/1999/xlink"
 xmlns:xodm="http://www.corel.com/coreldraw/odm/2003">
 <defs>
  <style type="text/css">
   <![CDATA[
    .fil0 {fill:#B6B8BA;fill-rule:nonzero}
   ]]>
  </style>
 </defs>
 <g id="Layer_x0020_1">
  <metadata id="CorelCorpID_0Corel-Layer"/>
  <path class="fil0" d="M8.28 4.56c0.08,1.8 -1.26,3.8 -3.63,3.8 -0.72,0 -1.39,-0.21 -1.96,-0.57 0.68,0.08 1.36,-0.11 1.89,-0.53 -0.56,-0.01 -1.03,-0.38 -1.19,-0.89 0.2,0.04 0.4,0.03 0.58,-0.02 -0.61,-0.12 -1.04,-0.68 -1.03,-1.27 0.17,0.1 0.37,0.15 0.58,0.16 -0.57,-0.38 -0.73,-1.13 -0.4,-1.71 0.63,0.77 1.57,1.28 2.63,1.34 -0.19,-0.8 0.42,-1.57 1.25,-1.57 0.37,0 0.7,0.16 0.93,0.4 0.29,-0.06 0.56,-0.16 0.81,-0.31 -0.1,0.3 -0.3,0.55 -0.56,0.71 0.26,-0.03 0.51,-0.1 0.73,-0.2 -0.17,0.26 -0.39,0.48 -0.64,0.66zm-2.77 -4.56c-3.04,0 -5.51,2.47 -5.51,5.51 0,3.05 2.47,5.51 5.51,5.51 3.04,0 5.51,-2.47 5.51,-5.51 0,-3.04 -2.47,-5.51 -5.51,-5.51z"/>
 </g>
</svg>
