<?xml version="1.0" encoding="UTF-8"?>
<!DOCTYPE svg PUBLIC "-//W3C//DTD SVG 1.1//EN" "http://www.w3.org/Graphics/SVG/1.1/DTD/svg11.dtd">
<!-- Creator: CorelDRAW 2020 (64-Bit) -->
<svg xmlns="http://www.w3.org/2000/svg" xml:space="preserve" width="6.1624mm" height="6.1617mm" version="1.1" style="shape-rendering:geometricPrecision; text-rendering:geometricPrecision; image-rendering:optimizeQuality; fill-rule:evenodd; clip-rule:evenodd"
viewBox="0 0 10.04 10.03"
 xmlns:xlink="http://www.w3.org/1999/xlink"
 xmlns:xodm="http://www.corel.com/coreldraw/odm/2003">
 <defs>
  <style type="text/css">
   <![CDATA[
    .fil0 {fill:#B6B8BA;fill-rule:nonzero}
   ]]>
  </style>
 </defs>
 <g id="Layer_x0020_1">
  <metadata id="CorelCorpID_0Corel-Layer"/>
  <path class="fil0" d="M5.1 3.69l0 -0.75c0,-0.17 -0.05,-0.25 -0.15,-0.25 -0.1,0 -0.15,0.08 -0.15,0.25l0 0.75c0,0.17 0.05,0.25 0.15,0.25 0.1,0 0.15,-0.08 0.15,-0.25zm-1.6 1.79l0.38 0 0 -0.33 -1.12 0 0 0.33 0.38 0 0 2.04 0.36 0 0 -2.04zm1.03 2.04l0.32 0 0 -1.77 -0.32 0 0 1.35c-0.07,0.1 -0.14,0.15 -0.2,0.15 -0.04,0 -0.07,-0.03 -0.08,-0.08 -0,-0.01 -0,-0.05 -0,-0.12l0 -1.3 -0.32 0 0 1.4c0,0.13 0.01,0.21 0.03,0.26 0.03,0.09 0.1,0.13 0.21,0.13 0.12,0 0.24,-0.07 0.37,-0.22l0 0.19zm1.22 -0.51c0,0.16 -0.05,0.24 -0.14,0.24 -0.05,0 -0.11,-0.03 -0.16,-0.08l0 -1.08c0.05,-0.05 0.11,-0.08 0.16,-0.08 0.09,0 0.14,0.08 0.14,0.24l0 0.75zm0.29 0.33c0.02,-0.08 0.03,-0.19 0.03,-0.36l0 -0.7c0,-0.17 -0.01,-0.28 -0.03,-0.36 -0.04,-0.13 -0.13,-0.2 -0.26,-0.2 -0.12,0 -0.23,0.06 -0.33,0.19l0 -0.78 -0.32 0 0 2.37 0.32 0 0 -0.17c0.11,0.13 0.22,0.2 0.33,0.2 0.13,0 0.21,-0.07 0.26,-0.2zm0.6 -0.92l0 -0.16c0,-0.16 0.05,-0.25 0.16,-0.25 0.11,0 0.16,0.08 0.16,0.25l0 0.16 -0.32 0zm0.63 0.73c0,-0.03 0.01,-0.1 0.01,-0.21l0 -0.05 -0.33 0c0,0.13 -0,0.2 -0.01,0.22 -0.02,0.09 -0.06,0.13 -0.14,0.13 -0.11,0 -0.16,-0.08 -0.16,-0.25l0 -0.31 0.64 0 0 -0.37c0,-0.19 -0.03,-0.33 -0.1,-0.42 -0.09,-0.12 -0.22,-0.18 -0.38,-0.18 -0.16,0 -0.29,0.06 -0.38,0.18 -0.07,0.09 -0.1,0.23 -0.1,0.42l0 0.62c0,0.19 0.04,0.33 0.1,0.42 0.09,0.12 0.22,0.18 0.39,0.18 0.17,0 0.3,-0.06 0.39,-0.19 0.04,-0.06 0.06,-0.12 0.07,-0.19zm0.4 -0.79c0,0.41 -0,0.85 -0.09,1.25 -0.06,0.28 -0.3,0.49 -0.57,0.52 -0.66,0.07 -1.32,0.07 -1.98,0.07 -0.66,0 -1.33,0 -1.99,-0.07 -0.28,-0.03 -0.51,-0.24 -0.57,-0.52 -0.09,-0.4 -0.09,-0.84 -0.09,-1.25 0,-0.41 0,-0.85 0.09,-1.25 0.06,-0.28 0.29,-0.49 0.57,-0.52 0.66,-0.07 1.32,-0.07 1.99,-0.07 0.66,0 1.33,0 1.98,0.07 0.28,0.03 0.51,0.24 0.57,0.52 0.09,0.4 0.09,0.84 0.09,1.25zm-1.05 -2.17l-0.32 0 0 -0.19c-0.13,0.15 -0.25,0.22 -0.37,0.22 -0.1,0 -0.18,-0.04 -0.21,-0.13 -0.02,-0.05 -0.03,-0.14 -0.03,-0.27l0 -1.41 0.32 0 0 1.31c0,0.08 0,0.12 0,0.13 0.01,0.05 0.03,0.08 0.08,0.08 0.06,0 0.13,-0.05 0.2,-0.15l0 -1.37 0.32 0 0 1.79zm-1.2 -0.58c0,0.19 -0.03,0.33 -0.1,0.42 -0.09,0.12 -0.22,0.18 -0.38,0.18 -0.16,0 -0.29,-0.06 -0.38,-0.18 -0.07,-0.09 -0.1,-0.23 -0.1,-0.42l0 -0.63c0,-0.19 0.03,-0.33 0.1,-0.42 0.09,-0.12 0.22,-0.18 0.38,-0.18 0.16,0 0.29,0.06 0.38,0.18 0.07,0.09 0.1,0.23 0.1,0.42l0 0.63zm-0.96 -1.82l-0.43 1.43 0 0.97 -0.36 0 0 -0.97c-0.03,-0.17 -0.1,-0.42 -0.22,-0.76 -0.08,-0.22 -0.15,-0.45 -0.23,-0.67l0.38 0 0.26 0.94 0.25 -0.94 0.36 0zm5.57 3.21c0,-2.77 -2.25,-5.02 -5.02,-5.02 -2.77,0 -5.02,2.25 -5.02,5.02 0,2.77 2.25,5.02 5.02,5.02 2.77,0 5.02,-2.25 5.02,-5.02z"/>
 </g>
</svg>
